<svg width="24" height="25" viewBox="0 0 24 25" fill="none" xmlns="http://www.w3.org/2000/svg">
<path d="M7.00696 12.5C7.00696 12.301 7.08598 12.1103 7.22663 11.9696C7.36728 11.829 7.55805 11.75 7.75696 11.75H11.25V8.25696C11.25 8.05805 11.329 7.86728 11.4696 7.72663C11.6103 7.58598 11.801 7.50696 12 7.50696C12.1989 7.50696 12.3896 7.58598 12.5303 7.72663C12.6709 7.86728 12.75 8.05805 12.75 8.25696V11.75H16.243C16.4419 11.75 16.6326 11.829 16.7733 11.9696C16.9139 12.1103 16.993 12.301 16.993 12.5C16.993 12.6989 16.9139 12.8896 16.7733 13.0303C16.6326 13.1709 16.4419 13.25 16.243 13.25H12.75V16.743C12.75 16.9419 12.6709 17.1326 12.5303 17.2733C12.3896 17.4139 12.1989 17.493 12 17.493C11.801 17.493 11.6103 17.4139 11.4696 17.2733C11.329 17.1326 11.25 16.9419 11.25 16.743V13.25H7.75696C7.55805 13.25 7.36728 13.1709 7.22663 13.0303C7.08598 12.8896 7.00696 12.6989 7.00696 12.5Z" fill="white"/>
<path fill-rule="evenodd" clip-rule="evenodd" d="M7.31704 4.26905C10.4295 3.92399 13.5706 3.92399 16.683 4.26905C18.51 4.47305 19.985 5.91205 20.199 7.74905C20.569 10.906 20.569 14.095 20.199 17.252C19.984 19.089 18.509 20.527 16.683 20.732C13.5706 21.0771 10.4295 21.0771 7.31704 20.732C5.49004 20.527 4.01504 19.089 3.80104 17.252C3.43269 14.0951 3.43269 10.906 3.80104 7.74905C4.01504 5.91205 5.49104 4.47305 7.31704 4.26905ZM16.517 5.75905C13.5149 5.42627 10.4852 5.42627 7.48304 5.75905C6.92728 5.8207 6.40854 6.06792 6.01062 6.46076C5.61269 6.85361 5.35883 7.36913 5.29004 7.92405C4.93437 10.965 4.93437 14.0371 5.29004 17.078C5.35904 17.6328 5.61299 18.1481 6.0109 18.5407C6.4088 18.9334 6.92743 19.1804 7.48304 19.242C10.46 19.574 13.54 19.574 16.517 19.242C17.0725 19.1802 17.5909 18.9331 17.9886 18.5404C18.3863 18.1478 18.6401 17.6326 18.709 17.078C19.0647 14.0371 19.0647 10.965 18.709 7.92405C18.6399 7.36964 18.386 6.85469 17.9883 6.46227C17.5906 6.06985 17.0723 5.82282 16.517 5.76105" fill="white"/>
</svg>
