<svg width="14" height="14" viewBox="0 0 14 14" fill="none" xmlns="http://www.w3.org/2000/svg">
<path d="M2.50365 5.4204C2.55784 5.36608 2.62221 5.32298 2.69308 5.29357C2.76395 5.26416 2.83992 5.24902 2.91665 5.24902C2.99338 5.24902 3.06935 5.26416 3.14022 5.29357C3.21109 5.32298 3.27546 5.36608 3.32965 5.4204L6.99998 9.0919L10.6703 5.4204C10.7799 5.31086 10.9284 5.24933 11.0833 5.24933C11.2382 5.24933 11.3868 5.31086 11.4963 5.4204C11.6059 5.52993 11.6674 5.67849 11.6674 5.8334C11.6674 5.9883 11.6059 6.13686 11.4963 6.2464L7.41298 10.3297C7.3588 10.3841 7.29443 10.4272 7.22356 10.4566C7.15269 10.486 7.07671 10.5011 6.99998 10.5011C6.92326 10.5011 6.84728 10.486 6.77641 10.4566C6.70554 10.4272 6.64117 10.3841 6.58698 10.3297L2.50365 6.2464C2.44933 6.19221 2.40623 6.12784 2.37682 6.05697C2.34741 5.9861 2.33228 5.91013 2.33228 5.8334C2.33228 5.75667 2.34741 5.6807 2.37682 5.60983C2.40623 5.53896 2.44933 5.47459 2.50365 5.4204Z" fill="#26407E"/>
</svg>
