<svg width="16" height="17" viewBox="0 0 16 17" fill="none" xmlns="http://www.w3.org/2000/svg">
<path d="M12 1.40234C12.3536 1.40234 12.6928 1.54282 12.9428 1.79287C13.1929 2.04292 13.3334 2.38206 13.3334 2.73568V13.4023C13.3334 13.756 13.1929 14.0951 12.9428 14.3452C12.6928 14.5952 12.3536 14.7357 12 14.7357H4.00002C3.6464 14.7357 3.30726 14.5952 3.05721 14.3452C2.80716 14.0951 2.66669 13.756 2.66669 13.4023V2.73568C2.66669 2.38206 2.80716 2.04292 3.05721 1.79287C3.30726 1.54282 3.6464 1.40234 4.00002 1.40234H12ZM8.00002 8.73568H6.00002C5.82321 8.73568 5.65364 8.80591 5.52862 8.93094C5.40359 9.05596 5.33335 9.22553 5.33335 9.40234C5.33335 9.57915 5.40359 9.74872 5.52862 9.87375C5.65364 9.99877 5.82321 10.069 6.00002 10.069H8.00002C8.17683 10.069 8.3464 9.99877 8.47143 9.87375C8.59645 9.74872 8.66669 9.57915 8.66669 9.40234C8.66669 9.22553 8.59645 9.05596 8.47143 8.93094C8.3464 8.80591 8.17683 8.73568 8.00002 8.73568ZM10 5.40234H6.00002C5.8301 5.40253 5.66667 5.4676 5.54311 5.58424C5.41955 5.70089 5.3452 5.86031 5.33524 6.02994C5.32528 6.19957 5.38047 6.3666 5.48953 6.4969C5.59859 6.6272 5.75329 6.71094 5.92202 6.73101L6.00002 6.73568H10C10.1699 6.73549 10.3334 6.67042 10.4569 6.55378C10.5805 6.43713 10.6548 6.27771 10.6648 6.10808C10.6748 5.93845 10.6196 5.77142 10.5105 5.64112C10.4015 5.51082 10.2468 5.42708 10.078 5.40701L10 5.40234Z" fill="white"/>
</svg>
