<svg width="24" height="25" viewBox="0 0 24 25" fill="none" xmlns="http://www.w3.org/2000/svg">
<path d="M5.45 17.67C4.34883 16.6262 3.47995 15.362 2.9 13.96C2.80095 13.7293 2.74988 13.481 2.74988 13.23C2.74988 12.979 2.80095 12.7306 2.9 12.5C3.67019 10.6264 4.96114 9.01268 6.62 7.84998C8.1945 6.74969 10.0797 6.18202 12 6.22998C13.3816 6.19529 14.7519 6.48648 16 7.07998M18.56 8.79998C19.6553 9.84282 20.5204 11.1031 21.1 12.5C21.199 12.7306 21.2501 12.979 21.2501 13.23C21.2501 13.481 21.199 13.7293 21.1 13.96C20.3298 15.8336 19.0388 17.4473 17.38 18.61C15.8055 19.7103 13.9203 20.2779 12 20.23C10.6184 20.2647 9.24809 19.9735 8 19.38" stroke="black" stroke-width="1.5" stroke-linecap="round" stroke-linejoin="round"/>
<path d="M8.71 14.4C8.56976 14.0259 8.4986 13.6295 8.5 13.23C8.5 12.3017 8.86875 11.4115 9.52513 10.7551C10.1815 10.0987 11.0717 9.73 12 9.73C12.4 9.728 12.796 9.8 13.17 9.94M15.29 12.06C15.43 12.434 15.502 12.83 15.5 13.23C15.5 14.1583 15.1313 15.0485 14.4749 15.7049C13.8185 16.3613 12.9283 16.73 12 16.73C11.6005 16.7314 11.2041 16.6602 10.83 16.52M3 20.75L19 4.75" stroke="black" stroke-width="1.5" stroke-linecap="round" stroke-linejoin="round"/>
</svg>
