<svg width="24" height="25" viewBox="0 0 24 25" fill="none" xmlns="http://www.w3.org/2000/svg">
<path d="M2.89901 13.485C2.7997 13.2527 2.7485 13.0026 2.7485 12.75C2.7485 12.4973 2.7997 12.2473 2.89901 12.015C3.70701 10.095 4.99901 8.47997 6.61501 7.36797C8.23101 6.25597 10.103 5.69497 12 5.75397C13.897 5.69497 15.768 6.25597 17.385 7.36797C19.002 8.47997 20.293 10.095 21.101 12.015C21.2003 12.2473 21.2515 12.4973 21.2515 12.75C21.2515 13.0026 21.2003 13.2527 21.101 13.485C20.293 15.405 19.001 17.02 17.385 18.132C15.769 19.244 13.897 19.805 12 19.746C10.103 19.805 8.23201 19.244 6.61501 18.132C4.99801 17.02 3.70701 15.405 2.90001 13.485" stroke="black" stroke-width="1.5" stroke-linecap="round" stroke-linejoin="round"/>
<path d="M12 16.25C12.4596 16.25 12.9148 16.1595 13.3394 15.9836C13.764 15.8077 14.1499 15.5499 14.4749 15.2249C14.7999 14.8999 15.0577 14.514 15.2336 14.0894C15.4095 13.6648 15.5 13.2096 15.5 12.75C15.5 12.2904 15.4095 11.8352 15.2336 11.4106C15.0577 10.986 14.7999 10.6001 14.4749 10.2751C14.1499 9.95012 13.764 9.69231 13.3394 9.51642C12.9148 9.34053 12.4596 9.25 12 9.25C11.0717 9.25 10.1815 9.61875 9.52513 10.2751C8.86875 10.9315 8.5 11.8217 8.5 12.75C8.5 13.6783 8.86875 14.5685 9.52513 15.2249C10.1815 15.8813 11.0717 16.25 12 16.25Z" stroke="black" stroke-width="1.5" stroke-linecap="round" stroke-linejoin="round"/>
</svg>
