<svg version="1.1" id="Layer_1" xmlns="http://www.w3.org/2000/svg" xmlns:xlink="http://www.w3.org/1999/xlink" x="0px" y="0px"
	 width="100%" viewBox="0 0 1200 675" enable-background="new 0 0 1200 675" xml:space="preserve">
<path fill="#FFFFFF" opacity="1.000000" stroke="none" 
	d="
M697.000000,676.000000 
	C464.666687,676.000000 232.833359,676.000000 1.000031,676.000000 
	C1.000021,451.000031 1.000021,226.000061 1.000010,1.000061 
	C400.999969,1.000041 800.999939,1.000041 1201.000000,1.000021 
	C1201.000000,225.999939 1201.000000,450.999878 1201.000000,675.999878 
	C1033.166626,676.000000 865.333313,676.000000 697.000000,676.000000 
M602.954529,287.880524 
	C636.731262,287.880524 670.507935,287.880524 704.549805,287.880524 
	C704.549805,253.581284 704.549805,219.844559 704.549805,185.781952 
	C670.420837,185.781952 636.524902,185.781952 602.101379,185.781952 
	C602.101379,220.063278 602.101379,254.020004 601.147522,287.902954 
	C567.564697,287.902954 533.981934,287.902954 500.217407,287.902954 
	C500.217407,322.231506 500.217407,356.071533 500.217407,389.948181 
	C534.289062,389.948181 568.004517,389.948181 601.754028,389.948181 
	C601.930054,389.216064 602.140442,388.750519 602.140015,388.285126 
	C602.110718,354.822662 602.064636,321.360168 602.954529,287.880524 
M815.142822,406.634613 
	C823.990173,396.926758 833.868103,387.960388 841.488037,377.369415 
	C862.733459,347.840149 870.491394,315.184204 860.386108,279.439056 
	C852.604431,251.912994 835.973633,230.159134 814.992798,211.373962 
	C814.861084,211.256012 814.469604,211.428192 814.098267,211.478668 
	C814.168335,211.985687 814.155151,212.488388 814.310791,212.931870 
	C828.230469,252.607590 820.562378,288.743256 795.976807,321.837494 
	C775.212036,349.788513 747.507080,369.162628 716.510925,384.091736 
	C671.612732,405.716736 623.905273,416.180084 574.376099,419.287048 
	C529.140137,422.124695 484.515472,418.428009 440.617706,407.006592 
	C401.239319,396.761047 364.416748,380.983063 331.968292,355.948029 
	C329.488373,354.034729 327.047607,352.070618 324.588654,350.130096 
	C326.411530,356.025940 328.680847,361.402435 331.702728,366.316101 
	C335.706238,372.825958 339.929932,379.268860 344.701050,385.226318 
	C365.003998,410.577515 391.028748,428.609070 419.941284,442.679504 
	C467.269043,465.711884 517.671143,476.416565 569.950928,478.749054 
	C613.989075,480.713837 657.478638,476.529694 700.120728,464.939911 
	C742.232422,453.494354 781.314148,436.010468 815.142822,406.634613 
M324.598785,258.133331 
	C316.898865,304.705933 344.581360,349.135590 374.074951,372.109833 
	C373.464600,370.126587 373.010590,368.570679 372.508026,367.030640 
	C366.823029,349.608978 365.248779,331.872314 368.576569,313.798889 
	C373.948181,284.625519 389.312561,261.114105 410.357880,240.961533 
	C441.013763,211.606064 477.986603,193.313736 518.103210,181.166306 
	C584.169983,161.161057 651.349304,158.040848 719.200867,170.204575 
	C760.351562,177.581650 799.461487,190.885590 835.164062,213.050461 
	C844.994324,219.153305 854.204407,226.255310 864.041809,233.138687 
	C863.666504,232.068634 863.415405,231.174393 863.047791,230.330917 
	C856.939392,216.314590 848.640137,203.703705 838.468811,192.322220 
	C813.137085,163.976624 781.388977,145.164597 746.540649,131.224258 
	C702.770813,113.715111 657.023010,105.584526 610.056458,104.394638 
	C560.549988,103.140404 512.032043,109.463974 465.013458,125.525627 
	C425.752502,138.937271 389.912598,158.136307 360.888947,188.469055 
	C342.285614,207.911453 329.205292,230.349487 324.598785,258.133331 
M869.948303,606.629883 
	C870.409790,597.121643 867.011414,589.468750 858.305542,585.186646 
	C846.780884,579.518066 836.069336,581.145325 826.894653,590.383789 
	C817.178650,580.084900 807.937317,579.354004 795.544189,587.949707 
	C795.419678,586.203064 795.307495,584.629456 795.162109,582.590759 
	C788.010376,583.449402 781.181152,584.269287 774.411499,585.082092 
	C774.411499,609.206543 774.411499,632.767700 774.411499,656.627808 
	C781.984741,656.041931 789.216553,655.482422 796.865784,654.890686 
	C796.865784,641.542297 796.828003,628.585632 796.897278,615.629456 
	C796.911438,612.981384 796.572327,609.907654 797.763428,607.804565 
	C799.046265,605.539429 801.832886,603.007446 804.158264,602.802490 
	C806.043091,602.636292 808.908203,605.369080 810.068176,607.505676 
	C811.236389,609.657349 811.069458,612.658630 811.085693,615.290039 
	C811.169556,628.904053 811.124695,642.518921 811.124695,656.619263 
	C818.783691,656.030029 825.952209,655.478577 833.346130,654.909729 
	C833.346130,652.346924 833.348083,650.359680 833.345764,648.372437 
	C833.331665,636.217590 833.112549,624.058228 833.385315,611.909851 
	C833.528198,605.550781 836.776550,602.185486 841.365295,602.390503 
	C845.949158,602.595276 848.082581,605.575745 848.136414,612.223022 
	C848.210632,621.382446 848.158264,630.542786 848.159363,639.702759 
	C848.160034,645.142334 848.159485,650.581970 848.159485,656.334534 
	C855.749268,655.843262 862.660767,655.395935 869.948669,654.924194 
	C869.948669,638.844116 869.948669,623.220337 869.948303,606.629883 
M935.805786,607.749939 
	C938.477783,602.561157 943.586121,600.511841 946.869019,603.927185 
	C948.686768,605.818176 949.674622,609.217285 949.736084,611.965637 
	C950.029907,625.114990 949.878967,638.274353 949.885986,651.430115 
	C949.886780,652.996887 949.886108,654.563660 949.886108,656.384705 
	C957.619080,655.852966 964.523254,655.378235 971.607849,654.891113 
	C971.607849,637.006592 972.026062,619.699158 971.458923,602.424072 
	C971.088684,591.144226 961.477966,582.901062 949.871521,582.150696 
	C941.461792,581.606873 934.256287,584.078430 928.622986,590.543213 
	C924.244995,585.518799 919.478882,581.727234 913.274902,582.324951 
	C907.785950,582.853943 902.446655,584.935486 897.128906,586.308960 
	C897.074036,585.929688 896.851807,584.393005 896.590393,582.585144 
	C889.513855,583.449829 882.824341,584.267273 876.222534,585.073975 
	C876.222534,609.218018 876.222534,632.774902 876.222534,656.617981 
	C883.807434,656.030701 891.027893,655.471619 898.594055,654.885803 
	C898.594055,649.922791 898.559937,645.447632 898.600830,640.973206 
	C898.696655,630.485229 898.730774,619.995056 898.995178,609.510925 
	C899.096313,605.500854 901.499146,602.864807 905.506714,602.556458 
	C909.490479,602.249878 911.558594,604.913879 912.262573,608.539490 
	C912.703003,610.808105 912.877991,613.157776 912.897217,615.473389 
	C912.967651,623.965759 912.922729,632.459106 912.921875,640.952087 
	C912.921326,646.058167 912.921814,651.164246 912.921814,656.637756 
	C920.587708,656.037598 927.618164,655.487244 934.942627,654.913818 
	C934.942627,647.258362 934.860413,640.118958 934.964355,632.982361 
	C935.083008,624.842529 935.367371,616.705017 935.805786,607.749939 
M691.123962,588.500000 
	C691.127686,600.494324 690.915222,612.493530 691.191040,624.481628 
	C691.516785,638.640015 697.975708,649.333801 711.413940,654.263245 
	C717.950256,656.660889 725.376099,657.794067 732.351562,657.617249 
	C753.805908,657.073425 767.626282,642.693970 768.008301,621.315002 
	C768.240417,608.325317 768.062195,595.328369 768.066101,582.334656 
	C768.068481,574.551514 768.066528,566.768433 768.066528,558.483643 
	C759.370117,559.238037 751.200500,559.946777 742.773743,560.677795 
	C742.773743,579.421021 742.807617,597.560547 742.741516,615.699768 
	C742.730042,618.848389 742.545898,622.039673 741.998352,625.132812 
	C741.159607,629.870789 738.097473,632.688538 733.416809,633.776550 
	C722.932129,636.213562 716.275818,630.743713 716.181335,619.178772 
	C716.030212,600.688965 716.136597,582.196960 716.134216,563.705933 
	C716.133972,561.932251 716.134216,560.158508 716.134216,558.178406 
	C707.408813,558.991882 699.358032,559.742432 691.123962,560.510071 
	C691.123962,569.865784 691.123962,578.682922 691.123962,588.500000 
M275.571625,657.378540 
	C279.607422,655.627991 283.643188,653.877380 287.855927,652.050049 
	C287.976929,653.696045 288.092651,655.270508 288.243835,657.327271 
	C295.631348,656.560242 302.631744,655.833435 309.387817,655.132019 
	C309.387817,622.473511 309.387817,590.452942 309.387817,558.197937 
	C301.782349,559.156921 294.607452,560.061584 287.133209,561.004028 
	C287.133209,570.507141 287.133209,579.416504 287.133209,588.821594 
	C275.045044,580.742432 262.923981,580.413757 250.971268,587.192383 
	C235.393967,596.026672 228.235535,615.215088 233.552826,632.002686 
	C238.515472,647.670593 254.883179,660.986389 275.571625,657.378540 
M322.154449,588.500000 
	C322.154449,598.487549 322.150238,608.475098 322.155334,618.462646 
	C322.165771,638.857666 333.748566,653.586609 353.645416,657.479614 
	C369.156525,660.514648 382.531342,655.715393 392.308380,643.332336 
	C401.837677,631.263123 402.785400,617.578308 395.967957,603.892456 
	C388.964355,589.833008 377.286255,582.409363 361.382263,583.026611 
	C355.886261,583.239990 350.452423,585.055176 344.594727,586.217102 
	C344.594727,577.305176 344.594727,567.898438 344.594727,558.203125 
	C336.856659,559.062134 329.644409,559.862793 322.154480,560.694275 
	C322.154480,569.900513 322.154480,578.700256 322.154449,588.500000 
M1070.295898,648.414673 
	C1070.297363,638.749084 1070.157471,629.080383 1070.371094,619.419495 
	C1070.454590,615.637817 1070.932251,611.760498 1071.961914,608.134460 
	C1072.928589,604.729675 1075.910400,603.318542 1079.462402,603.679993 
	C1082.960083,604.035950 1084.769409,606.210022 1085.178711,609.583801 
	C1085.418701,611.561401 1085.603394,613.559326 1085.611328,615.548950 
	C1085.653442,626.047607 1085.631226,636.546509 1085.631348,647.045288 
	C1085.631470,650.142761 1085.631470,653.240295 1085.631470,656.646240 
	C1093.411133,656.116394 1100.503052,655.633301 1107.848999,655.132996 
	C1107.848999,637.986450 1108.396973,621.150024 1107.677124,604.367981 
	C1107.093262,590.758118 1097.916748,582.475342 1084.889893,583.092773 
	C1079.957153,583.326660 1075.129761,585.787842 1070.015137,587.304749 
	C1070.015137,578.295471 1070.015137,568.554016 1070.015137,558.517334 
	C1062.462158,559.252686 1055.376343,559.942505 1048.143311,560.646729 
	C1048.143311,592.896057 1048.143311,624.796204 1048.143311,657.094910 
	C1055.656372,656.339111 1062.844360,655.615967 1070.295288,654.866394 
	C1070.295288,652.672729 1070.295288,651.029236 1070.295898,648.414673 
M221.379486,589.097229 
	C218.453705,587.565247 215.662811,585.646362 212.577881,584.570984 
	C201.510101,580.712708 190.552643,583.306580 179.650986,585.708435 
	C178.855148,585.883850 177.783493,586.778137 177.614273,587.515747 
	C176.231125,593.544800 175.032074,599.616089 173.629532,606.386719 
	C176.442337,605.222900 178.209656,604.121216 180.114914,603.772034 
	C186.085159,602.677734 192.134277,600.993652 198.102417,601.177246 
	C204.915558,601.386841 208.084702,606.672729 206.611053,613.227356 
	C195.149979,606.323181 184.010025,607.309509 173.626541,615.233398 
	C165.787643,621.215515 162.892944,629.946899 166.105270,638.870483 
	C173.871826,660.445374 189.491486,661.371582 207.882782,652.946045 
	C208.117981,654.208862 208.352066,655.465759 208.649811,657.064392 
	C215.414230,656.258423 221.948624,655.479858 228.747833,654.669739 
	C228.747833,637.227722 229.216629,620.101501 228.436798,603.032288 
	C228.227051,598.441284 224.220200,594.023743 221.379486,589.097229 
M111.350105,650.364014 
	C111.350105,652.483276 111.350105,654.602478 111.350105,657.114075 
	C119.857651,656.350464 127.754898,655.641602 136.086746,654.893738 
	C136.086746,631.117920 136.086746,607.700256 136.086746,583.891479 
	C143.982635,583.891479 151.419510,583.891479 159.057861,583.891479 
	C159.057861,575.948547 159.057861,568.407166 159.057861,560.607117 
	C137.551163,560.607117 116.405151,560.584778 95.259605,560.671631 
	C94.178322,560.676086 92.370819,561.393555 92.135490,562.158630 
	C89.970909,569.195679 88.078903,576.316650 85.936729,584.027954 
	C94.870369,584.027954 102.967194,584.027954 111.350662,584.027954 
	C111.350662,606.113159 111.350662,627.753296 111.350105,650.364014 
M1025.620361,584.727356 
	C1014.537720,580.722229 1003.596619,583.308105 992.680908,585.561401 
	C991.658325,585.772583 990.301270,586.979187 990.065491,587.956604 
	C988.647949,593.833862 987.512512,599.779053 986.154907,606.316528 
	C988.619019,605.317017 990.234802,604.341492 991.972717,604.014587 
	C998.096375,602.862244 1004.277222,601.047119 1010.407593,601.152588 
	C1017.349182,601.272034 1020.574951,606.515320 1019.499146,613.434509 
	C1007.001465,606.962158 996.621521,607.331848 986.837097,614.585083 
	C978.629761,620.669189 975.463623,629.490906 978.552856,638.467468 
	C986.103027,660.406189 1001.875549,661.501343 1020.581604,652.805420 
	C1020.765930,654.090576 1020.961182,655.451416 1021.195801,657.086975 
	C1028.090942,656.255066 1034.609009,655.468567 1041.238770,654.668640 
	C1041.238770,638.261963 1041.127319,622.453430 1041.277344,606.647400 
	C1041.380127,595.809570 1036.495239,588.637024 1025.620361,584.727356 
M603.153564,620.500000 
	C603.153564,608.051208 603.153564,595.602417 603.153564,582.630005 
	C595.896851,583.204407 589.182068,583.735901 581.947388,584.308533 
	C581.947388,586.219666 581.947998,587.844604 581.947266,589.469604 
	C581.942505,599.967773 582.108887,610.470215 581.844177,620.961792 
	C581.744934,624.897644 581.105530,628.960693 579.874451,632.689087 
	C578.530396,636.759766 574.808289,638.404968 570.684204,638.185547 
	C566.471802,637.961243 565.618225,634.444824 564.885193,631.121765 
	C564.564026,629.665710 564.266541,628.162903 564.272522,626.682617 
	C564.326721,613.358154 564.459900,600.034058 564.538818,586.709656 
	C564.546265,585.452332 564.341003,584.193787 564.201843,582.550903 
	C556.634033,583.274902 549.457397,583.961487 542.250427,584.650940 
	C542.250427,602.415894 542.168579,619.406250 542.297302,636.395081 
	C542.339172,641.921021 544.502380,646.738464 548.458008,650.719116 
	C557.686401,660.005737 569.426880,660.228943 581.916870,651.018066 
	C582.030029,653.106018 582.131958,654.986389 582.258240,657.316650 
	C589.365112,656.422791 596.056091,655.581177 603.153625,654.688477 
	C603.153625,643.424744 603.153625,632.462402 603.153564,620.500000 
M615.060791,577.501831 
	C615.060791,603.906311 615.060791,630.310852 615.060791,657.123718 
	C622.968933,656.343384 630.296021,655.620422 637.628052,654.896973 
	C637.628052,622.509583 637.628052,590.789185 637.628052,558.514099 
	C630.016113,559.234131 622.664978,559.929504 615.060852,560.648804 
	C615.060852,566.217773 615.060852,571.360352 615.060791,577.501831 
M492.892365,607.500000 
	C492.892365,624.039429 492.892365,640.578857 492.892365,657.460693 
	C501.270416,656.636658 508.829620,655.893127 516.596375,655.129211 
	C516.596375,652.149719 516.579407,649.664612 516.599304,647.179749 
	C516.680298,637.048340 516.368591,626.892090 516.992065,616.793823 
	C517.468140,609.082520 521.466248,606.056335 529.183533,605.959106 
	C530.316528,605.944946 531.451111,606.053162 532.849304,606.116760 
	C535.222900,598.657959 537.550415,591.343933 540.300293,582.702698 
	C534.768250,583.491638 530.149658,583.419983 526.125549,584.931274 
	C522.164185,586.419189 518.805603,589.511902 514.901733,592.085632 
	C514.901733,589.088745 514.901733,586.164368 514.901733,582.795654 
	C507.356476,583.744568 500.213257,584.642944 492.892365,585.563660 
	C492.892365,592.879883 492.892365,599.690002 492.892365,607.500000 
M477.945557,591.540283 
	C477.945557,588.749329 477.945557,585.958313 477.945557,582.604004 
	C470.255981,583.536438 463.084839,584.406006 455.803345,585.289001 
	C455.803345,609.008789 455.803345,632.368896 455.803345,656.108093 
	C463.355469,655.544250 470.559204,655.006348 477.945618,654.454834 
	C477.945618,633.436523 477.945618,612.984436 477.945557,591.540283 
M411.942078,589.706177 
	C411.942078,611.659363 411.942078,633.612488 411.942078,656.099792 
	C419.637848,655.539490 426.816284,655.016846 433.997009,654.494019 
	C433.997009,630.331177 433.997009,606.736450 433.997009,582.646545 
	C427.108063,583.477966 420.521271,584.146545 413.999542,585.213074 
	C413.142273,585.353271 412.618042,587.530090 411.942078,589.706177 
M478.817108,569.414917 
	C480.003204,568.630493 481.189331,567.846069 482.762909,566.805420 
	C476.185181,562.178162 470.844727,558.421326 466.848297,555.609924 
	C461.455048,560.274597 456.734985,564.356995 451.723145,568.691711 
	C457.207428,572.882080 462.273560,576.752991 467.820251,580.991028 
	C471.497955,577.105896 474.909637,573.501770 478.817108,569.414917 
M418.123199,558.571167 
	C414.703949,561.672607 411.284668,564.773987 407.492889,568.213257 
	C413.547272,572.846558 418.614166,576.724121 423.342224,580.342407 
	C428.402130,575.250000 433.006378,570.616211 437.750732,565.841309 
	C432.626007,562.217651 427.374084,558.504089 421.488708,554.342590 
	C420.434204,555.716370 419.532257,556.891479 418.123199,558.571167 
z"/>
<path fill="#027DC2" opacity="1.000000" stroke="none" 
	d="
M814.886597,406.880402 
	C781.314148,436.010468 742.232422,453.494354 700.120728,464.939911 
	C657.478638,476.529694 613.989075,480.713837 569.950928,478.749054 
	C517.671143,476.416565 467.269043,465.711884 419.941284,442.679504 
	C391.028748,428.609070 365.003998,410.577515 344.701050,385.226318 
	C339.929932,379.268860 335.706238,372.825958 331.702728,366.316101 
	C328.680847,361.402435 326.411530,356.025940 324.588654,350.130096 
	C327.047607,352.070618 329.488373,354.034729 331.968292,355.948029 
	C364.416748,380.983063 401.239319,396.761047 440.617706,407.006592 
	C484.515472,418.428009 529.140137,422.124695 574.376099,419.287048 
	C623.905273,416.180084 671.612732,405.716736 716.510925,384.091736 
	C747.507080,369.162628 775.212036,349.788513 795.976807,321.837494 
	C820.562378,288.743256 828.230469,252.607590 814.310791,212.931870 
	C814.155151,212.488388 814.168335,211.985687 814.098267,211.478668 
	C814.469604,211.428192 814.861084,211.256012 814.992798,211.373962 
	C835.973633,230.159134 852.604431,251.912994 860.386108,279.439056 
	C870.491394,315.184204 862.733459,347.840149 841.488037,377.369415 
	C833.868103,387.960388 823.990173,396.926758 814.886597,406.880402 
z"/>
<path fill="#86C227" opacity="1.000000" stroke="none" 
	d="
M324.681610,257.704041 
	C329.205292,230.349487 342.285614,207.911453 360.888947,188.469055 
	C389.912598,158.136307 425.752502,138.937271 465.013458,125.525627 
	C512.032043,109.463974 560.549988,103.140404 610.056458,104.394638 
	C657.023010,105.584526 702.770813,113.715111 746.540649,131.224258 
	C781.388977,145.164597 813.137085,163.976624 838.468811,192.322220 
	C848.640137,203.703705 856.939392,216.314590 863.047791,230.330917 
	C863.415405,231.174393 863.666504,232.068634 864.041809,233.138687 
	C854.204407,226.255310 844.994324,219.153305 835.164062,213.050461 
	C799.461487,190.885590 760.351562,177.581650 719.200867,170.204575 
	C651.349304,158.040848 584.169983,161.161057 518.103210,181.166306 
	C477.986603,193.313736 441.013763,211.606064 410.357880,240.961533 
	C389.312561,261.114105 373.948181,284.625519 368.576569,313.798889 
	C365.248779,331.872314 366.823029,349.608978 372.508026,367.030640 
	C373.010590,368.570679 373.464600,370.126587 374.074951,372.109833 
	C344.581360,349.135590 316.898865,304.705933 324.681610,257.704041 
z"/>
<path fill="#86C227" opacity="1.000000" stroke="none" 
	d="
M602.101379,287.976746 
	C602.101379,254.020004 602.101379,220.063278 602.101379,185.781952 
	C636.524902,185.781952 670.420837,185.781952 704.549805,185.781952 
	C704.549805,219.844559 704.549805,253.581284 704.549805,287.880524 
	C670.507935,287.880524 636.731262,287.880524 602.508179,287.908295 
	C602.061768,287.936066 602.101379,287.976746 602.101379,287.976746 
z"/>
<path fill="#017CC2" opacity="1.000000" stroke="none" 
	d="
M602.040894,287.916870 
	C602.064636,321.360168 602.110718,354.822662 602.140015,388.285126 
	C602.140442,388.750519 601.930054,389.216064 601.754028,389.948181 
	C568.004517,389.948181 534.289062,389.948181 500.217407,389.948181 
	C500.217407,356.071533 500.217407,322.231506 500.217407,287.902954 
	C533.981934,287.902954 567.564697,287.902954 601.624451,287.939850 
	C602.101379,287.976746 602.061768,287.936066 602.040894,287.916870 
z"/>
<path fill="#29357F" opacity="1.000000" stroke="none" 
	d="
M869.948486,607.113220 
	C869.948669,623.220337 869.948669,638.844116 869.948669,654.924194 
	C862.660767,655.395935 855.749268,655.843262 848.159485,656.334534 
	C848.159485,650.581970 848.160034,645.142334 848.159363,639.702759 
	C848.158264,630.542786 848.210632,621.382446 848.136414,612.223022 
	C848.082581,605.575745 845.949158,602.595276 841.365295,602.390503 
	C836.776550,602.185486 833.528198,605.550781 833.385315,611.909851 
	C833.112549,624.058228 833.331665,636.217590 833.345764,648.372437 
	C833.348083,650.359680 833.346130,652.346924 833.346130,654.909729 
	C825.952209,655.478577 818.783691,656.030029 811.124695,656.619263 
	C811.124695,642.518921 811.169556,628.904053 811.085693,615.290039 
	C811.069458,612.658630 811.236389,609.657349 810.068176,607.505676 
	C808.908203,605.369080 806.043091,602.636292 804.158264,602.802490 
	C801.832886,603.007446 799.046265,605.539429 797.763428,607.804565 
	C796.572327,609.907654 796.911438,612.981384 796.897278,615.629456 
	C796.828003,628.585632 796.865784,641.542297 796.865784,654.890686 
	C789.216553,655.482422 781.984741,656.041931 774.411499,656.627808 
	C774.411499,632.767700 774.411499,609.206543 774.411499,585.082092 
	C781.181152,584.269287 788.010376,583.449402 795.162109,582.590759 
	C795.307495,584.629456 795.419678,586.203064 795.544189,587.949707 
	C807.937317,579.354004 817.178650,580.084900 826.894653,590.383789 
	C836.069336,581.145325 846.780884,579.518066 858.305542,585.186646 
	C867.011414,589.468750 870.409790,597.121643 869.948486,607.113220 
z"/>
<path fill="#293580" opacity="1.000000" stroke="none" 
	d="
M935.692749,608.158203 
	C935.367371,616.705017 935.083008,624.842529 934.964355,632.982361 
	C934.860413,640.118958 934.942627,647.258362 934.942627,654.913818 
	C927.618164,655.487244 920.587708,656.037598 912.921814,656.637756 
	C912.921814,651.164246 912.921326,646.058167 912.921875,640.952087 
	C912.922729,632.459106 912.967651,623.965759 912.897217,615.473389 
	C912.877991,613.157776 912.703003,610.808105 912.262573,608.539490 
	C911.558594,604.913879 909.490479,602.249878 905.506714,602.556458 
	C901.499146,602.864807 899.096313,605.500854 898.995178,609.510925 
	C898.730774,619.995056 898.696655,630.485229 898.600830,640.973206 
	C898.559937,645.447632 898.594055,649.922791 898.594055,654.885803 
	C891.027893,655.471619 883.807434,656.030701 876.222534,656.617981 
	C876.222534,632.774902 876.222534,609.218018 876.222534,585.073975 
	C882.824341,584.267273 889.513855,583.449829 896.590393,582.585144 
	C896.851807,584.393005 897.074036,585.929688 897.128906,586.308960 
	C902.446655,584.935486 907.785950,582.853943 913.274902,582.324951 
	C919.478882,581.727234 924.244995,585.518799 928.622986,590.543213 
	C934.256287,584.078430 941.461792,581.606873 949.871521,582.150696 
	C961.477966,582.901062 971.088684,591.144226 971.458923,602.424072 
	C972.026062,619.699158 971.607849,637.006592 971.607849,654.891113 
	C964.523254,655.378235 957.619080,655.852966 949.886108,656.384705 
	C949.886108,654.563660 949.886780,652.996887 949.885986,651.430115 
	C949.878967,638.274353 950.029907,625.114990 949.736084,611.965637 
	C949.674622,609.217285 948.686768,605.818176 946.869019,603.927185 
	C943.586121,600.511841 938.477783,602.561157 935.692749,608.158203 
z"/>
<path fill="#28347F" opacity="1.000000" stroke="none" 
	d="
M691.123962,588.000000 
	C691.123962,578.682922 691.123962,569.865784 691.123962,560.510071 
	C699.358032,559.742432 707.408813,558.991882 716.134216,558.178406 
	C716.134216,560.158508 716.133972,561.932251 716.134216,563.705933 
	C716.136597,582.196960 716.030212,600.688965 716.181335,619.178772 
	C716.275818,630.743713 722.932129,636.213562 733.416809,633.776550 
	C738.097473,632.688538 741.159607,629.870789 741.998352,625.132812 
	C742.545898,622.039673 742.730042,618.848389 742.741516,615.699768 
	C742.807617,597.560547 742.773743,579.421021 742.773743,560.677795 
	C751.200500,559.946777 759.370117,559.238037 768.066528,558.483643 
	C768.066528,566.768433 768.068481,574.551514 768.066101,582.334656 
	C768.062195,595.328369 768.240417,608.325317 768.008301,621.315002 
	C767.626282,642.693970 753.805908,657.073425 732.351562,657.617249 
	C725.376099,657.794067 717.950256,656.660889 711.413940,654.263245 
	C697.975708,649.333801 691.516785,638.640015 691.191040,624.481628 
	C690.915222,612.493530 691.127686,600.494324 691.123962,588.000000 
z"/>
<path fill="#293580" opacity="1.000000" stroke="none" 
	d="
M275.160645,657.505798 
	C254.883179,660.986389 238.515472,647.670593 233.552826,632.002686 
	C228.235535,615.215088 235.393967,596.026672 250.971268,587.192383 
	C262.923981,580.413757 275.045044,580.742432 287.133209,588.821594 
	C287.133209,579.416504 287.133209,570.507141 287.133209,561.004028 
	C294.607452,560.061584 301.782349,559.156921 309.387817,558.197937 
	C309.387817,590.452942 309.387817,622.473511 309.387817,655.132019 
	C302.631744,655.833435 295.631348,656.560242 288.243835,657.327271 
	C288.092651,655.270508 287.976929,653.696045 287.855927,652.050049 
	C283.643188,653.877380 279.607422,655.627991 275.160645,657.505798 
M254.462616,623.678528 
	C254.891830,624.931152 255.224640,626.227112 255.765808,627.429321 
	C259.455353,635.626404 267.411072,639.218445 275.904541,636.568298 
	C285.292908,633.639038 289.804443,626.385742 287.985046,617.146362 
	C286.156067,607.858093 277.757416,601.757263 268.694336,603.021545 
	C260.041443,604.228699 252.108414,613.032776 254.462616,623.678528 
z"/>
<path fill="#293580" opacity="1.000000" stroke="none" 
	d="
M322.154480,588.000000 
	C322.154480,578.700256 322.154480,569.900513 322.154480,560.694275 
	C329.644409,559.862793 336.856659,559.062134 344.594727,558.203125 
	C344.594727,567.898438 344.594727,577.305176 344.594727,586.217102 
	C350.452423,585.055176 355.886261,583.239990 361.382263,583.026611 
	C377.286255,582.409363 388.964355,589.833008 395.967957,603.892456 
	C402.785400,617.578308 401.837677,631.263123 392.308380,643.332336 
	C382.531342,655.715393 369.156525,660.514648 353.645416,657.479614 
	C333.748566,653.586609 322.165771,638.857666 322.155334,618.462646 
	C322.150238,608.475098 322.154449,598.487549 322.154480,588.000000 
M377.037933,623.009949 
	C377.632874,614.312317 374.430756,608.250305 367.518616,604.988770 
	C361.367432,602.086304 353.655640,603.000366 349.237457,607.155701 
	C343.820007,612.250793 341.579285,621.128784 344.158661,627.278564 
	C346.811401,633.603210 354.279053,637.773010 362.190674,637.347229 
	C369.355682,636.961609 373.949219,632.739868 377.037933,623.009949 
z"/>
<path fill="#27347F" opacity="1.000000" stroke="none" 
	d="
M1070.295654,648.900208 
	C1070.295288,651.029236 1070.295288,652.672729 1070.295288,654.866394 
	C1062.844360,655.615967 1055.656372,656.339111 1048.143311,657.094910 
	C1048.143311,624.796204 1048.143311,592.896057 1048.143311,560.646729 
	C1055.376343,559.942505 1062.462158,559.252686 1070.015137,558.517334 
	C1070.015137,568.554016 1070.015137,578.295471 1070.015137,587.304749 
	C1075.129761,585.787842 1079.957153,583.326660 1084.889893,583.092773 
	C1097.916748,582.475342 1107.093262,590.758118 1107.677124,604.367981 
	C1108.396973,621.150024 1107.848999,637.986450 1107.848999,655.132996 
	C1100.503052,655.633301 1093.411133,656.116394 1085.631470,656.646240 
	C1085.631470,653.240295 1085.631470,650.142761 1085.631348,647.045288 
	C1085.631226,636.546509 1085.653442,626.047607 1085.611328,615.548950 
	C1085.603394,613.559326 1085.418701,611.561401 1085.178711,609.583801 
	C1084.769409,606.210022 1082.960083,604.035950 1079.462402,603.679993 
	C1075.910400,603.318542 1072.928589,604.729675 1071.961914,608.134460 
	C1070.932251,611.760498 1070.454590,615.637817 1070.371094,619.419495 
	C1070.157471,629.080383 1070.297363,638.749084 1070.295654,648.900208 
z"/>
<path fill="#293580" opacity="1.000000" stroke="none" 
	d="
M221.667938,589.311890 
	C224.220200,594.023743 228.227051,598.441284 228.436798,603.032288 
	C229.216629,620.101501 228.747833,637.227722 228.747833,654.669739 
	C221.948624,655.479858 215.414230,656.258423 208.649811,657.064392 
	C208.352066,655.465759 208.117981,654.208862 207.882782,652.946045 
	C189.491486,661.371582 173.871826,660.445374 166.105270,638.870483 
	C162.892944,629.946899 165.787643,621.215515 173.626541,615.233398 
	C184.010025,607.309509 195.149979,606.323181 206.611053,613.227356 
	C208.084702,606.672729 204.915558,601.386841 198.102417,601.177246 
	C192.134277,600.993652 186.085159,602.677734 180.114914,603.772034 
	C178.209656,604.121216 176.442337,605.222900 173.629532,606.386719 
	C175.032074,599.616089 176.231125,593.544800 177.614273,587.515747 
	C177.783493,586.778137 178.855148,585.883850 179.650986,585.708435 
	C190.552643,583.306580 201.510101,580.712708 212.577881,584.570984 
	C215.662811,585.646362 218.453705,587.565247 221.667938,589.311890 
M207.160858,634.216309 
	C207.704712,629.623474 205.755768,626.437378 201.541275,624.736206 
	C197.200348,622.983826 193.032333,623.347961 189.397827,626.510925 
	C185.921509,629.536255 185.696625,634.752014 188.784866,638.113342 
	C193.765625,643.534485 203.897156,641.831726 207.160858,634.216309 
z"/>
<path fill="#293580" opacity="1.000000" stroke="none" 
	d="
M111.350388,649.878662 
	C111.350662,627.753296 111.350662,606.113159 111.350662,584.027954 
	C102.967194,584.027954 94.870369,584.027954 85.936729,584.027954 
	C88.078903,576.316650 89.970909,569.195679 92.135490,562.158630 
	C92.370819,561.393555 94.178322,560.676086 95.259605,560.671631 
	C116.405151,560.584778 137.551163,560.607117 159.057861,560.607117 
	C159.057861,568.407166 159.057861,575.948547 159.057861,583.891479 
	C151.419510,583.891479 143.982635,583.891479 136.086746,583.891479 
	C136.086746,607.700256 136.086746,631.117920 136.086746,654.893738 
	C127.754898,655.641602 119.857651,656.350464 111.350105,657.114075 
	C111.350105,654.602478 111.350105,652.483276 111.350388,649.878662 
z"/>
<path fill="#28347F" opacity="1.000000" stroke="none" 
	d="
M1025.999756,584.829468 
	C1036.495239,588.637024 1041.380127,595.809570 1041.277344,606.647400 
	C1041.127319,622.453430 1041.238770,638.261963 1041.238770,654.668640 
	C1034.609009,655.468567 1028.090942,656.255066 1021.195801,657.086975 
	C1020.961182,655.451416 1020.765930,654.090576 1020.581604,652.805420 
	C1001.875549,661.501343 986.103027,660.406189 978.552856,638.467468 
	C975.463623,629.490906 978.629761,620.669189 986.837097,614.585083 
	C996.621521,607.331848 1007.001465,606.962158 1019.499146,613.434509 
	C1020.574951,606.515320 1017.349182,601.272034 1010.407593,601.152588 
	C1004.277222,601.047119 998.096375,602.862244 991.972717,604.014587 
	C990.234802,604.341492 988.619019,605.317017 986.154907,606.316528 
	C987.512512,599.779053 988.647949,593.833862 990.065491,587.956604 
	C990.301270,586.979187 991.658325,585.772583 992.680908,585.561401 
	C1003.596619,583.308105 1014.537720,580.722229 1025.999756,584.829468 
M1017.992004,627.629517 
	C1014.987854,624.110413 1011.095825,623.206421 1006.754883,624.048523 
	C1000.328247,625.295105 997.187256,631.594666 1000.297791,636.782288 
	C1002.870483,641.072937 1010.531433,642.760742 1015.493652,640.130249 
	C1019.809814,637.842163 1020.812988,633.876221 1017.992004,627.629517 
z"/>
<path fill="#293680" opacity="1.000000" stroke="none" 
	d="
M603.153564,621.000000 
	C603.153625,632.462402 603.153625,643.424744 603.153625,654.688477 
	C596.056091,655.581177 589.365112,656.422791 582.258240,657.316650 
	C582.131958,654.986389 582.030029,653.106018 581.916870,651.018066 
	C569.426880,660.228943 557.686401,660.005737 548.458008,650.719116 
	C544.502380,646.738464 542.339172,641.921021 542.297302,636.395081 
	C542.168579,619.406250 542.250427,602.415894 542.250427,584.650940 
	C549.457397,583.961487 556.634033,583.274902 564.201843,582.550903 
	C564.341003,584.193787 564.546265,585.452332 564.538818,586.709656 
	C564.459900,600.034058 564.326721,613.358154 564.272522,626.682617 
	C564.266541,628.162903 564.564026,629.665710 564.885193,631.121765 
	C565.618225,634.444824 566.471802,637.961243 570.684204,638.185547 
	C574.808289,638.404968 578.530396,636.759766 579.874451,632.689087 
	C581.105530,628.960693 581.744934,624.897644 581.844177,620.961792 
	C582.108887,610.470215 581.942505,599.967773 581.947266,589.469604 
	C581.947998,587.844604 581.947388,586.219666 581.947388,584.308533 
	C589.182068,583.735901 595.896851,583.204407 603.153564,582.630005 
	C603.153564,595.602417 603.153564,608.051208 603.153564,621.000000 
z"/>
<path fill="#2A3680" opacity="1.000000" stroke="none" 
	d="
M615.060791,577.002380 
	C615.060852,571.360352 615.060852,566.217773 615.060852,560.648804 
	C622.664978,559.929504 630.016113,559.234131 637.628052,558.514099 
	C637.628052,590.789185 637.628052,622.509583 637.628052,654.896973 
	C630.296021,655.620422 622.968933,656.343384 615.060791,657.123718 
	C615.060791,630.310852 615.060791,603.906311 615.060791,577.002380 
z"/>
<path fill="#29357F" opacity="1.000000" stroke="none" 
	d="
M492.892365,607.000061 
	C492.892365,599.690002 492.892365,592.879883 492.892365,585.563660 
	C500.213257,584.642944 507.356476,583.744568 514.901733,582.795654 
	C514.901733,586.164368 514.901733,589.088745 514.901733,592.085632 
	C518.805603,589.511902 522.164185,586.419189 526.125549,584.931274 
	C530.149658,583.419983 534.768250,583.491638 540.300293,582.702698 
	C537.550415,591.343933 535.222900,598.657959 532.849304,606.116760 
	C531.451111,606.053162 530.316528,605.944946 529.183533,605.959106 
	C521.466248,606.056335 517.468140,609.082520 516.992065,616.793823 
	C516.368591,626.892090 516.680298,637.048340 516.599304,647.179749 
	C516.579407,649.664612 516.596375,652.149719 516.596375,655.129211 
	C508.829620,655.893127 501.270416,656.636658 492.892365,657.460693 
	C492.892365,640.578857 492.892365,624.039429 492.892365,607.000061 
z"/>
<path fill="#27337F" opacity="1.000000" stroke="none" 
	d="
M477.945587,592.036255 
	C477.945618,612.984436 477.945618,633.436523 477.945618,654.454834 
	C470.559204,655.006348 463.355469,655.544250 455.803345,656.108093 
	C455.803345,632.368896 455.803345,609.008789 455.803345,585.289001 
	C463.084839,584.406006 470.255981,583.536438 477.945557,582.604004 
	C477.945557,585.958313 477.945557,588.749329 477.945587,592.036255 
z"/>
<path fill="#27337F" opacity="1.000000" stroke="none" 
	d="
M411.940826,589.234924 
	C412.618042,587.530090 413.142273,585.353271 413.999542,585.213074 
	C420.521271,584.146545 427.108063,583.477966 433.997009,582.646545 
	C433.997009,606.736450 433.997009,630.331177 433.997009,654.494019 
	C426.816284,655.016846 419.637848,655.539490 411.942078,656.099792 
	C411.942078,633.612488 411.942078,611.659363 411.940826,589.234924 
z"/>
<path fill="#2B377F" opacity="1.000000" stroke="none" 
	d="
M478.569214,569.656250 
	C474.909637,573.501770 471.497955,577.105896 467.820251,580.991028 
	C462.273560,576.752991 457.207428,572.882080 451.723145,568.691711 
	C456.734985,564.356995 461.455048,560.274597 466.848297,555.609924 
	C470.844727,558.421326 476.185181,562.178162 482.762909,566.805420 
	C481.189331,567.846069 480.003204,568.630493 478.569214,569.656250 
z"/>
<path fill="#2B3780" opacity="1.000000" stroke="none" 
	d="
M418.376740,558.318848 
	C419.532257,556.891479 420.434204,555.716370 421.488708,554.342590 
	C427.374084,558.504089 432.626007,562.217651 437.750732,565.841309 
	C433.006378,570.616211 428.402130,575.250000 423.342224,580.342407 
	C418.614166,576.724121 413.547272,572.846558 407.492889,568.213257 
	C411.284668,564.773987 414.703949,561.672607 418.376740,558.318848 
z"/>
<path fill="#FCFCFD" opacity="1.000000" stroke="none" 
	d="
M254.369171,623.272827 
	C252.108414,613.032776 260.041443,604.228699 268.694336,603.021545 
	C277.757416,601.757263 286.156067,607.858093 287.985046,617.146362 
	C289.804443,626.385742 285.292908,633.639038 275.904541,636.568298 
	C267.411072,639.218445 259.455353,635.626404 255.765808,627.429321 
	C255.224640,626.227112 254.891830,624.931152 254.369171,623.272827 
z"/>
<path fill="#FCFCFD" opacity="1.000000" stroke="none" 
	d="
M376.960815,623.426575 
	C373.949219,632.739868 369.355682,636.961609 362.190674,637.347229 
	C354.279053,637.773010 346.811401,633.603210 344.158661,627.278564 
	C341.579285,621.128784 343.820007,612.250793 349.237457,607.155701 
	C353.655640,603.000366 361.367432,602.086304 367.518616,604.988770 
	C374.430756,608.250305 377.632874,614.312317 376.960815,623.426575 
z"/>
<path fill="#FBFBFD" opacity="1.000000" stroke="none" 
	d="
M207.121643,634.627197 
	C203.897156,641.831726 193.765625,643.534485 188.784866,638.113342 
	C185.696625,634.752014 185.921509,629.536255 189.397827,626.510925 
	C193.032333,623.347961 197.200348,622.983826 201.541275,624.736206 
	C205.755768,626.437378 207.704712,629.623474 207.121643,634.627197 
z"/>
<path fill="#F8F9FB" opacity="1.000000" stroke="none" 
	d="
M1018.250549,627.919067 
	C1020.812988,633.876221 1019.809814,637.842163 1015.493652,640.130249 
	C1010.531433,642.760742 1002.870483,641.072937 1000.297791,636.782288 
	C997.187256,631.594666 1000.328247,625.295105 1006.754883,624.048523 
	C1011.095825,623.206421 1014.987854,624.110413 1018.250549,627.919067 
z"/>
</svg>