<svg width="24" height="25" viewBox="0 0 24 25" fill="none" xmlns="http://www.w3.org/2000/svg">
<path d="M17 22.5L16.7 21C16.5 20.9167 16.3127 20.8293 16.138 20.738C15.9633 20.6467 15.784 20.534 15.6 20.4L14.15 20.85L13.15 19.15L14.3 18.15C14.2667 17.95 14.25 17.7333 14.25 17.5C14.25 17.2667 14.2667 17.05 14.3 16.85L13.15 15.85L14.15 14.15L15.6 14.6C15.7833 14.4667 15.9627 14.3543 16.138 14.263C16.3133 14.1717 16.5007 14.084 16.7 14L17 12.5H19L19.3 14C19.5 14.0833 19.6877 14.171 19.863 14.263C20.0383 14.355 20.2173 14.4673 20.4 14.6L21.85 14.15L22.85 15.85L21.7 16.85C21.7333 17.05 21.75 17.2667 21.75 17.5C21.75 17.7333 21.7333 17.95 21.7 18.15L22.85 19.15L21.85 20.85L20.4 20.4C20.2167 20.5333 20.0377 20.646 19.863 20.738C19.6883 20.83 19.5007 20.9173 19.3 21L19 22.5H17ZM18 19.5C18.55 19.5 19.021 19.3043 19.413 18.913C19.805 18.5217 20.0007 18.0507 20 17.5C19.9993 16.9493 19.8037 16.4787 19.413 16.088C19.0223 15.6973 18.5513 15.5013 18 15.5C17.4487 15.4987 16.978 15.6947 16.588 16.088C16.198 16.4813 16.002 16.952 16 17.5C15.998 18.048 16.194 18.519 16.588 18.913C16.982 19.307 17.4527 19.5027 18 19.5ZM4 18.5V6.5V10.8V10.5V18.5ZM4 20.5C3.45 20.5 2.97933 20.3043 2.588 19.913C2.19667 19.5217 2.00067 19.0507 2 18.5V6.5C2 5.95 2.196 5.47933 2.588 5.088C2.98 4.69667 3.45067 4.50067 4 4.5H10L12 6.5H20C20.55 6.5 21.021 6.696 21.413 7.088C21.805 7.48 22.0007 7.95067 22 8.5V11.775C21.7 11.5583 21.3833 11.371 21.05 11.213C20.7167 11.055 20.3667 10.9173 20 10.8V8.5H11.175L9.175 6.5H4V18.5H11.075C11.125 18.85 11.2043 19.1917 11.313 19.525C11.4217 19.8583 11.5507 20.1833 11.7 20.5H4Z" fill="#616161"/>
</svg>
