<svg width="24" height="25" viewBox="0 0 24 25" fill="none" xmlns="http://www.w3.org/2000/svg">
<path d="M9 16.75C9 17.0152 8.89464 17.2696 8.70711 17.4571C8.51957 17.6446 8.26522 17.75 8 17.75C7.73478 17.75 7.48043 17.6446 7.29289 17.4571C7.10536 17.2696 7 17.0152 7 16.75C7 16.4848 7.10536 16.2304 7.29289 16.0429C7.48043 15.8554 7.73478 15.75 8 15.75C8.26522 15.75 8.51957 15.8554 8.70711 16.0429C8.89464 16.2304 9 16.4848 9 16.75ZM13 16.75C13 17.0152 12.8946 17.2696 12.7071 17.4571C12.5196 17.6446 12.2652 17.75 12 17.75C11.7348 17.75 11.4804 17.6446 11.2929 17.4571C11.1054 17.2696 11 17.0152 11 16.75C11 16.4848 11.1054 16.2304 11.2929 16.0429C11.4804 15.8554 11.7348 15.75 12 15.75C12.2652 15.75 12.5196 15.8554 12.7071 16.0429C12.8946 16.2304 13 16.4848 13 16.75ZM16 17.75C16.2652 17.75 16.5196 17.6446 16.7071 17.4571C16.8946 17.2696 17 17.0152 17 16.75C17 16.4848 16.8946 16.2304 16.7071 16.0429C16.5196 15.8554 16.2652 15.75 16 15.75C15.7348 15.75 15.4804 15.8554 15.2929 16.0429C15.1054 16.2304 15 16.4848 15 16.75C15 17.0152 15.1054 17.2696 15.2929 17.4571C15.4804 17.6446 15.7348 17.75 16 17.75Z" fill="#616161"/>
<path fill-rule="evenodd" clip-rule="evenodd" d="M5.25 8.75V10.053C5.02333 10.0683 4.80933 10.0897 4.608 10.117C3.708 10.237 2.95 10.497 2.348 11.098C1.746 11.7 1.488 12.458 1.367 13.358C1.25 14.225 1.25 15.328 1.25 16.695V16.805C1.25 18.172 1.25 19.275 1.367 20.142C1.487 21.042 1.747 21.8 2.348 22.402C2.95 23.004 3.708 23.262 4.608 23.384C5.475 23.5 6.578 23.5 7.945 23.5H16.055C17.422 23.5 18.525 23.5 19.392 23.384C20.292 23.262 21.05 23.004 21.652 22.402C22.254 21.8 22.512 21.042 22.634 20.142C22.75 19.275 22.75 18.172 22.75 16.805V16.695C22.75 15.328 22.75 14.225 22.634 13.358C22.512 12.458 22.254 11.7 21.652 11.098C21.05 10.496 20.292 10.238 19.392 10.117C19.1787 10.0888 18.9646 10.0674 18.75 10.053V8.75C18.75 6.95979 18.0388 5.2429 16.773 3.97703C15.5071 2.71116 13.7902 2 12 2C10.2098 2 8.4929 2.71116 7.22703 3.97703C5.96116 5.2429 5.25 6.95979 5.25 8.75ZM12 3.5C10.6076 3.5 9.27225 4.05312 8.28769 5.03769C7.30312 6.02225 6.75 7.35761 6.75 8.75V10.003C7.12333 10.0003 7.52167 9.99933 7.945 10H16.055C16.4783 10 16.8767 10.001 17.25 10.003V8.75C17.25 5.85 14.9 3.5 12 3.5ZM4.808 11.603C4.074 11.702 3.686 11.883 3.409 12.159C3.132 12.436 2.952 12.824 2.853 13.559C2.752 14.314 2.75 15.315 2.75 16.75C2.75 18.185 2.752 19.186 2.853 19.942C2.952 20.676 3.133 21.064 3.409 21.341C3.686 21.618 4.074 21.798 4.809 21.897C5.563 21.998 6.565 22 8 22H16C17.435 22 18.436 21.998 19.192 21.897C19.926 21.798 20.314 21.617 20.591 21.341C20.868 21.064 21.048 20.676 21.147 19.941C21.248 19.186 21.25 18.185 21.25 16.75C21.25 15.315 21.248 14.313 21.147 13.558C21.048 12.824 20.867 12.436 20.591 12.159C20.314 11.882 19.926 11.702 19.191 11.603C18.436 11.502 17.435 11.5 16 11.5H8C6.565 11.5 5.563 11.502 4.808 11.603Z" fill="#616161"/>
</svg>
