<svg width="16" height="16" viewBox="0 0 16 16" fill="none" xmlns="http://www.w3.org/2000/svg">
<path d="M3.73335 8.53322H3.20001V7.46655H3.73335C3.87479 7.46655 4.01045 7.52274 4.11047 7.62276C4.21049 7.72278 4.26668 7.85844 4.26668 7.99989C4.26668 8.14133 4.21049 8.27699 4.11047 8.37701C4.01045 8.47703 3.87479 8.53322 3.73335 8.53322ZM7.46668 10.6666V7.46655H8.00001C8.14146 7.46655 8.27712 7.52274 8.37714 7.62276C8.47716 7.72278 8.53335 7.85844 8.53335 7.99989V10.1332C8.53335 10.2747 8.47716 10.4103 8.37714 10.5103C8.27712 10.6104 8.14146 10.6666 8.00001 10.6666H7.46668Z" fill="white"/>
<path fill-rule="evenodd" clip-rule="evenodd" d="M1.06665 1.6C1.06665 1.17565 1.23522 0.768687 1.53528 0.468629C1.83534 0.168571 2.2423 0 2.66665 0L11.4208 0L14.9333 3.51253V14.4C14.9333 14.8243 14.7647 15.2313 14.4647 15.5314C14.1646 15.8314 13.7577 16 13.3333 16H2.66665C2.2423 16 1.83534 15.8314 1.53528 15.5314C1.23522 15.2313 1.06665 14.8243 1.06665 14.4V1.6ZM3.73332 6.4H2.13332V11.7333H3.19998V9.6H3.73332C4.15766 9.6 4.56463 9.43143 4.86469 9.13137C5.16475 8.83131 5.33332 8.42435 5.33332 8C5.33332 7.57565 5.16475 7.16869 4.86469 6.86863C4.56463 6.56857 4.15766 6.4 3.73332 6.4ZM7.99998 6.4H6.39998V11.7333H7.99998C8.42433 11.7333 8.8313 11.5648 9.13136 11.2647C9.43141 10.9646 9.59998 10.5577 9.59998 10.1333V8C9.59998 7.57565 9.43141 7.16869 9.13136 6.86863C8.8313 6.56857 8.42433 6.4 7.99998 6.4ZM10.6667 11.7333V6.4H13.8667V7.46667H11.7333V8.53333H12.8V9.6H11.7333V11.7333H10.6667Z" fill="white"/>
</svg>
