<svg width="24" height="25" viewBox="0 0 24 25" fill="none" xmlns="http://www.w3.org/2000/svg">
<path d="M19 2.5H5C3.3 2.5 2 3.8 2 5.5V19.5C2 21.2 3.3 22.5 5 22.5H19C20.7 22.5 22 21.2 22 19.5V5.5C22 3.8 20.7 2.5 19 2.5ZM8 17.5C8 18.1 7.6 18.5 7 18.5C6.4 18.5 6 18.1 6 17.5V13.5C6 12.9 6.4 12.5 7 12.5C7.6 12.5 8 12.9 8 13.5V17.5ZM13 17.5C13 18.1 12.6 18.5 12 18.5C11.4 18.5 11 18.1 11 17.5V7.5C11 6.9 11.4 6.5 12 6.5C12.6 6.5 13 6.9 13 7.5V17.5ZM18 17.5C18 18.1 17.6 18.5 17 18.5C16.4 18.5 16 18.1 16 17.5V11.5C16 10.9 16.4 10.5 17 10.5C17.6 10.5 18 10.9 18 11.5V17.5Z" fill="#26407E"/>
</svg>
